HIERARCHY
ROOT Joint1
{
	OFFSET 0.000000 0.000000 0.000000
	CHANNELS 6 Xposition Yposition Zposition Xrotation Yrotation Zrotation
	JOINT Joint2
	{
		OFFSET -0.000000 0.000000 1.456275
		CHANNELS 6 Xposition Yposition Zposition Xrotation Yrotation Zrotation
		JOINT Joint3
		{
			OFFSET -0.000000 0.000002 1.471446
			CHANNELS 6 Xposition Yposition Zposition Xrotation Yrotation Zrotation
			JOINT Joint4
			{
				OFFSET 0.625745 0.000000 0.917755
				CHANNELS 6 Xposition Yposition Zposition Xrotation Yrotation Zrotation
				JOINT Joint5
				{
					OFFSET -0.629534 0.000001 0.940221
					CHANNELS 6 Xposition Yposition Zposition Xrotation Yrotation Zrotation
					JOINT Joint6
					{
						OFFSET -0.000001 0.113772 1.960660
						CHANNELS 6 Xposition Yposition Zposition Xrotation Yrotation Zrotation
						JOINT Joint7
						{
							OFFSET -0.669733 -0.113771 0.388340
							CHANNELS 6 Xposition Yposition Zposition Xrotation Yrotation Zrotation
							End Site
							{
								OFFSET 0.005509 0.005509 0.438980
							}
						}
					}
				}
			}
		}
	}
}
MOTION
Frames: 9
Frame Time: 0.041667
0.000000 0.000000 0.000000 -0.000000 1.019410 -47.805860 -0.000000 0.000000 1.456275 0.000003 -59.347575 -0.000007 -0.000000 0.000002 1.471446 0.000001 -1.133460 -10.189521 0.625744 0.000000 0.917755 -0.000003 76.840386 -0.000009 -0.629533 0.000001 0.940221 -0.000001 1.709733 -52.885970 -0.000001 0.113772 1.960661 -88.303882 126.686554 0.000008 -0.669733 -0.113771 0.388340 -1.237461 3.416570 166.493183 
0.000000 0.000000 0.000000 -0.000000 1.019410 -49.576389 -0.000000 0.000000 1.456275 0.000008 -59.879667 0.000001 -0.000000 0.000002 1.471446 0.000000 -1.133462 -10.565605 0.625745 0.000000 0.917755 0.000003 74.685318 0.000000 -0.629534 0.000001 0.940221 0.000001 1.709737 -54.843984 -0.000001 0.113772 1.960660 -88.303875 128.046021 0.000004 -0.669733 -0.113771 0.388340 -1.255032 3.405576 167.660708 
0.000000 0.000000 0.000000 -0.000000 1.019410 -50.962873 -0.000000 0.000000 1.456275 -0.000001 -60.296343 0.000001 -0.000000 0.000002 1.471446 -0.000001 -1.133458 -10.860111 0.625745 0.000000 0.917755 -0.000005 72.997701 0.000003 -0.629534 0.000001 0.940221 0.000001 1.709736 -56.377290 -0.000001 0.113772 1.960660 -88.303882 129.110601 -0.000002 -0.669733 -0.113770 0.388340 -1.268633 3.396716 168.574984 
0.000000 0.000000 0.000000 -0.000000 1.019410 -52.068298 -0.000000 0.000000 1.456275 0.000004 -60.628557 0.000001 -0.000000 0.000002 1.471446 0.000001 -1.133460 -11.094921 0.625744 0.000000 0.917755 -0.000003 71.652181 0.000010 -0.629534 0.000001 0.940220 0.000000 1.709736 -57.599778 -0.000001 0.113772 1.960660 -88.303882 129.959389 0.000006 -0.669733 -0.113771 0.388340 -1.279375 3.389501 169.303915 
0.000000 0.000000 0.000000 -0.000000 1.019410 -53.117425 -0.000000 -0.000000 1.456275 -0.000000 -60.943838 -0.000002 -0.000000 0.000002 1.471446 -0.000002 -1.133461 -11.317768 0.625745 0.000001 0.917755 -0.000002 70.375209 0.000009 -0.629534 0.000001 0.940221 0.000000 1.709736 -58.760001 -0.000001 0.113772 1.960660 -88.303882 130.764928 0.000004 -0.669733 -0.113771 0.388340 -1.289484 3.382526 169.995704 
0.000000 0.000000 0.000000 -0.000000 1.019410 -54.278837 -0.000000 -0.000000 1.456275 0.000001 -61.292881 -0.000001 -0.000000 0.000002 1.471446 -0.000003 -1.133461 -11.564466 0.625744 0.000000 0.917755 -0.000004 68.961551 0.000004 -0.629534 0.000001 0.940221 0.000000 1.709736 -60.044391 -0.000001 0.113772 1.960661 -88.303875 131.656691 0.000003 -0.669733 -0.113771 0.388340 -1.300576 3.374665 170.761532 
0.000000 0.000000 0.000000 -0.000000 1.019410 -55.496557 -0.000000 -0.000000 1.456275 0.000003 -61.658829 -0.000003 -0.000000 0.000002 1.471446 -0.000001 -1.133460 -11.823126 0.625744 0.000000 0.917755 -0.000003 67.479359 0.000005 -0.629534 0.000001 0.940221 0.000001 1.709737 -61.391058 -0.000001 0.113772 1.960660 -88.303875 132.591676 0.000001 -0.669733 -0.113771 0.388340 -1.312090 3.366264 171.564462 
0.000000 0.000000 0.000000 -0.000000 1.019410 -56.658458 -0.000000 0.000000 1.456275 -0.000003 -62.008009 -0.000003 -0.000001 0.000002 1.471446 -0.000000 -1.133463 -12.069929 0.625744 0.000000 0.917755 -0.000002 66.065100 0.000001 -0.629534 0.000001 0.940221 0.000001 1.709736 -62.676001 -0.000001 0.113772 1.960660 -88.303875 133.483821 0.000002 -0.669733 -0.113771 0.388340 -1.322967 3.358094 172.330604 
0.000000 0.000000 0.000000 -0.000000 1.019410 -57.708391 -0.000000 0.000000 1.456275 0.000002 -62.323543 -0.000001 -0.000000 0.000002 1.471446 0.000000 -1.133460 -12.292947 0.625745 0.000000 0.917755 0.000001 64.787131 0.000004 -0.629534 0.000001 0.940221 0.000000 1.709736 -63.837120 -0.000001 0.113772 1.960661 -88.303882 134.289989 0.000004 -0.669733 -0.113770 0.388340 -1.332699 3.350592 173.022898 
